<mxfile host="app.diagrams.net" agent="Mozilla/5.0 (Macintosh; Intel Mac OS X 10_15_7) AppleWebKit/537.36 (KHTML, like Gecko) Chrome/131.0.0.0 Safari/537.36" version="26.0.10">
  <diagram name="Page-1" id="xeobxapnhnjurY0t2ZCF">
    <mxGraphModel dx="5928" dy="4976" grid="1" gridSize="10" guides="1" tooltips="1" connect="1" arrows="1" fold="1" page="1" pageScale="1" pageWidth="1100" pageHeight="1700" math="0" shadow="0">
      <root>
        <mxCell id="0" />
        <mxCell id="1" parent="0" />
        <mxCell id="eGAmUR279255d1PDw6Jc-125" value="" style="group;rounded=1;fontSize=15;textOpacity=80;" parent="1" vertex="1" connectable="0">
          <mxGeometry x="760" y="-1100" width="2925" height="2025" as="geometry" />
        </mxCell>
        <mxCell id="eGAmUR279255d1PDw6Jc-61" value="Books" style="html=1;overflow=block;blockSpacing=1;whiteSpace=wrap;fontSize=15;fontColor=default;fontStyle=1;spacing=3.8;strokeColor=#3a414a;strokeOpacity=100;fillOpacity=100;rounded=1;absoluteArcSize=1;arcSize=9;fillColor=#ffffff;strokeWidth=4.5;lucidId=j2_NHzCVTF-l;textOpacity=80;" parent="eGAmUR279255d1PDw6Jc-125" vertex="1">
          <mxGeometry x="555" y="810" width="262" height="125" as="geometry" />
        </mxCell>
        <mxCell id="eGAmUR279255d1PDw6Jc-62" value="" style="html=1;jettySize=18;whiteSpace=wrap;fontSize=15;strokeColor=#3a414a;strokeOpacity=100;strokeWidth=4.5;rounded=1;arcSize=12;startArrow=none;endArrow=none;exitX=0.5;exitY=-0.018;exitPerimeter=0;entryX=0.5;entryY=1.025;entryPerimeter=0;lucidId=H2_NlaD~RAQ-;textOpacity=80;" parent="eGAmUR279255d1PDw6Jc-125" source="eGAmUR279255d1PDw6Jc-61" target="eGAmUR279255d1PDw6Jc-63" edge="1">
          <mxGeometry width="100" height="100" relative="1" as="geometry" />
        </mxCell>
        <mxCell id="eGAmUR279255d1PDw6Jc-63" value="ISBN" style="shape=ellipse;strokeWidth=6;fontSize=15;textOpacity=80;fontStyle=4" parent="eGAmUR279255d1PDw6Jc-125" vertex="1">
          <mxGeometry x="390" y="570" width="210" height="90" as="geometry" />
        </mxCell>
        <mxCell id="eGAmUR279255d1PDw6Jc-64" value="Author" style="shape=ellipse;strokeWidth=6;fontSize=15;textOpacity=80;" parent="eGAmUR279255d1PDw6Jc-125" vertex="1">
          <mxGeometry x="750" y="555" width="180" height="90" as="geometry" />
        </mxCell>
        <mxCell id="eGAmUR279255d1PDw6Jc-65" value="" style="html=1;jettySize=18;whiteSpace=wrap;fontSize=15;strokeColor=#3a414a;strokeOpacity=100;strokeWidth=4.5;rounded=1;arcSize=12;startArrow=none;endArrow=none;exitX=0.5;exitY=-0.018;exitPerimeter=0;entryX=0.5;entryY=1.025;entryPerimeter=0;lucidId=e5_N7iAQc3CS;textOpacity=80;" parent="eGAmUR279255d1PDw6Jc-125" source="eGAmUR279255d1PDw6Jc-61" target="eGAmUR279255d1PDw6Jc-64" edge="1">
          <mxGeometry width="100" height="100" relative="1" as="geometry" />
        </mxCell>
        <mxCell id="eGAmUR279255d1PDw6Jc-66" value="" style="html=1;jettySize=18;whiteSpace=wrap;fontSize=15;strokeColor=#3a414a;strokeOpacity=100;strokeWidth=4.5;rounded=1;arcSize=12;startArrow=none;endArrow=none;exitX=-0.009;exitY=0.5;exitPerimeter=0;entryX=1.01;entryY=0.5;entryPerimeter=0;lucidId=o5_NpqxvBkij;textOpacity=80;" parent="eGAmUR279255d1PDw6Jc-125" source="eGAmUR279255d1PDw6Jc-61" target="eGAmUR279255d1PDw6Jc-67" edge="1">
          <mxGeometry width="100" height="100" relative="1" as="geometry" />
        </mxCell>
        <mxCell id="eGAmUR279255d1PDw6Jc-67" value="Title " style="shape=ellipse;strokeWidth=6;fontSize=15;textOpacity=80;" parent="eGAmUR279255d1PDw6Jc-125" vertex="1">
          <mxGeometry y="855" width="225" height="135" as="geometry" />
        </mxCell>
        <mxCell id="eGAmUR279255d1PDw6Jc-68" value="" style="html=1;jettySize=18;whiteSpace=wrap;fontSize=15;strokeColor=#3a414a;strokeOpacity=100;strokeWidth=4.5;rounded=1;arcSize=12;startArrow=none;endArrow=none;exitX=-0.009;exitY=0.5;exitPerimeter=0;entryX=1.011;entryY=0.5;entryPerimeter=0;lucidId=J5_NUJ4w3qfV;textOpacity=80;" parent="eGAmUR279255d1PDw6Jc-125" source="eGAmUR279255d1PDw6Jc-61" target="eGAmUR279255d1PDw6Jc-69" edge="1">
          <mxGeometry width="100" height="100" relative="1" as="geometry" />
        </mxCell>
        <mxCell id="eGAmUR279255d1PDw6Jc-69" value="Edition" style="shape=ellipse;strokeWidth=6;fontSize=15;textOpacity=80;" parent="eGAmUR279255d1PDw6Jc-125" vertex="1">
          <mxGeometry x="60" y="585" width="210" height="120" as="geometry" />
        </mxCell>
        <mxCell id="eGAmUR279255d1PDw6Jc-70" value="" style="html=1;jettySize=18;whiteSpace=wrap;fontSize=15;strokeColor=#3a414a;strokeOpacity=100;strokeWidth=4.5;rounded=1;arcSize=12;startArrow=none;endArrow=none;exitX=0.274;exitY=1.018;exitPerimeter=0;entryX=1.012;entryY=0.5;entryPerimeter=0;lucidId=d6_NPdIH_Iv1;textOpacity=80;" parent="eGAmUR279255d1PDw6Jc-125" source="eGAmUR279255d1PDw6Jc-61" target="eGAmUR279255d1PDw6Jc-71" edge="1">
          <mxGeometry width="100" height="100" relative="1" as="geometry" />
        </mxCell>
        <mxCell id="eGAmUR279255d1PDw6Jc-71" value="Category" style="shape=ellipse;strokeWidth=6;fontSize=15;textOpacity=80;" parent="eGAmUR279255d1PDw6Jc-125" vertex="1">
          <mxGeometry x="255" y="1080" width="195" height="120" as="geometry" />
        </mxCell>
        <mxCell id="eGAmUR279255d1PDw6Jc-72" value="" style="html=1;jettySize=18;whiteSpace=wrap;fontSize=15;strokeColor=#3a414a;strokeOpacity=100;strokeWidth=4.5;rounded=1;arcSize=12;startArrow=none;endArrow=none;exitX=0.76;exitY=1.018;exitPerimeter=0;entryX=0.5;entryY=-0.019;entryPerimeter=0;lucidId=m6_N-7KDhnri;textOpacity=80;" parent="eGAmUR279255d1PDw6Jc-125" source="eGAmUR279255d1PDw6Jc-61" target="eGAmUR279255d1PDw6Jc-73" edge="1">
          <mxGeometry width="100" height="100" relative="1" as="geometry" />
        </mxCell>
        <mxCell id="eGAmUR279255d1PDw6Jc-73" value="Price" style="shape=ellipse;strokeWidth=6;fontSize=15;textOpacity=80;" parent="eGAmUR279255d1PDw6Jc-125" vertex="1">
          <mxGeometry x="825" y="1140" width="195" height="120" as="geometry" />
        </mxCell>
        <mxCell id="eGAmUR279255d1PDw6Jc-74" value="" style="html=1;jettySize=18;whiteSpace=wrap;fontSize=15;strokeColor=#3a414a;strokeOpacity=100;strokeWidth=4.5;rounded=1;arcSize=12;startArrow=none;endArrow=none;exitX=0.49;exitY=1;exitPerimeter=0;entryX=1.019;entryY=0.5;entryPerimeter=0;lucidId=Jh.NhC.yT0Kk;textOpacity=80;" parent="eGAmUR279255d1PDw6Jc-125" source="eGAmUR279255d1PDw6Jc-81" target="eGAmUR279255d1PDw6Jc-75" edge="1">
          <mxGeometry width="100" height="100" relative="1" as="geometry" />
        </mxCell>
        <mxCell id="eGAmUR279255d1PDw6Jc-75" value="Copy_Num" style="shape=ellipse;strokeWidth=6;fontSize=15;textOpacity=80;" parent="eGAmUR279255d1PDw6Jc-125" vertex="1">
          <mxGeometry x="270" y="1510" width="120" height="60" as="geometry" />
        </mxCell>
        <mxCell id="eGAmUR279255d1PDw6Jc-76" value="Book_Copies" style="html=1;overflow=block;blockSpacing=1;whiteSpace=wrap;fontSize=15;fontColor=default;spacing=9;strokeColor=#3a414a;strokeOpacity=100;fillOpacity=100;rounded=1;absoluteArcSize=1;arcSize=9;fillColor=#ffffff;strokeWidth=4.5;lucidId=Kf.Nl1nL9Wi.;textOpacity=80;" parent="eGAmUR279255d1PDw6Jc-125" vertex="1">
          <mxGeometry x="600" y="1480" width="225" height="120" as="geometry" />
        </mxCell>
        <mxCell id="eGAmUR279255d1PDw6Jc-77" value="" style="html=1;overflow=block;blockSpacing=1;whiteSpace=wrap;fontSize=15;spacing=0;strokeColor=#3a414a;strokeOpacity=100;fillOpacity=100;rounded=1;absoluteArcSize=1;arcSize=9;rotation=-270;fillColor=#ffffff;strokeWidth=4.5;lucidId=Kg.NG8R0NltL;textOpacity=80;" parent="eGAmUR279255d1PDw6Jc-125" vertex="1">
          <mxGeometry x="412" y="1198" width="528" height="2" as="geometry" />
        </mxCell>
        <mxCell id="eGAmUR279255d1PDw6Jc-78" value="" style="html=1;overflow=block;blockSpacing=1;whiteSpace=wrap;fontSize=15;spacing=0;strokeColor=#3a414a;strokeOpacity=100;fillOpacity=100;rounded=1;absoluteArcSize=1;arcSize=9;rotation=-270;fillColor=#ffffff;strokeWidth=4.5;lucidId=Ng.NywTlu88X;textOpacity=80;" parent="eGAmUR279255d1PDw6Jc-125" vertex="1">
          <mxGeometry x="457" y="1198" width="528" height="2" as="geometry" />
        </mxCell>
        <mxCell id="eGAmUR279255d1PDw6Jc-79" value="" style="html=1;overflow=block;blockSpacing=1;whiteSpace=wrap;fontSize=15;spacing=0;strokeColor=#3a414a;strokeOpacity=100;fillOpacity=100;rounded=1;absoluteArcSize=1;arcSize=9;fillColor=#ffffff;strokeWidth=4.5;lucidId=8h.Nz9cup._V;textOpacity=80;" parent="eGAmUR279255d1PDw6Jc-125" vertex="1">
          <mxGeometry x="585" y="1460" width="255" height="5" as="geometry" />
        </mxCell>
        <mxCell id="eGAmUR279255d1PDw6Jc-80" value="" style="html=1;overflow=block;blockSpacing=1;whiteSpace=wrap;fontSize=15;spacing=0;strokeColor=#3a414a;strokeOpacity=100;fillOpacity=100;rounded=1;absoluteArcSize=1;arcSize=9;rotation=-270;fillColor=#ffffff;strokeWidth=4.5;lucidId=_h.NYpM1ZeCq;textOpacity=80;" parent="eGAmUR279255d1PDw6Jc-125" vertex="1">
          <mxGeometry x="757" y="1538" width="161" height="5" as="geometry" />
        </mxCell>
        <mxCell id="eGAmUR279255d1PDw6Jc-81" value="" style="html=1;overflow=block;blockSpacing=1;whiteSpace=wrap;fontSize=15;spacing=0;strokeColor=#3a414a;strokeOpacity=100;fillOpacity=100;rounded=1;absoluteArcSize=1;arcSize=9;rotation=-270;fillColor=#ffffff;strokeWidth=4.5;lucidId=ji.NKlsPjdGa;textOpacity=80;" parent="eGAmUR279255d1PDw6Jc-125" vertex="1">
          <mxGeometry x="508" y="1539" width="158" height="5" as="geometry" />
        </mxCell>
        <mxCell id="eGAmUR279255d1PDw6Jc-82" value="" style="html=1;overflow=block;blockSpacing=1;whiteSpace=wrap;fontSize=15;spacing=0;strokeColor=#3a414a;strokeOpacity=100;fillOpacity=100;rounded=1;absoluteArcSize=1;arcSize=9;rotation=-180;fillColor=#ffffff;strokeWidth=4.5;lucidId=yi.NQOjgz-Xa;textOpacity=80;" parent="eGAmUR279255d1PDw6Jc-125" vertex="1">
          <mxGeometry x="585" y="1616" width="255" height="5" as="geometry" />
        </mxCell>
        <mxCell id="eGAmUR279255d1PDw6Jc-83" value="" style="html=1;jettySize=18;whiteSpace=wrap;fontSize=15;strokeColor=#3a414a;strokeOpacity=100;strokeWidth=4.5;rounded=1;arcSize=12;startArrow=none;endArrow=none;exitX=0.5;exitY=1.019;exitPerimeter=0;entryX=0.474;entryY=-0.03;entryPerimeter=0;lucidId=Jj.NLq5GuH-~;textOpacity=80;" parent="eGAmUR279255d1PDw6Jc-125" source="eGAmUR279255d1PDw6Jc-76" target="eGAmUR279255d1PDw6Jc-84" edge="1">
          <mxGeometry width="100" height="100" relative="1" as="geometry" />
        </mxCell>
        <mxCell id="eGAmUR279255d1PDw6Jc-84" value="Status" style="shape=ellipse;strokeWidth=6;fontSize=15;textOpacity=80;" parent="eGAmUR279255d1PDw6Jc-125" vertex="1">
          <mxGeometry x="645" y="1740" width="143" height="75" as="geometry" />
        </mxCell>
        <mxCell id="eGAmUR279255d1PDw6Jc-85" value="" style="html=1;jettySize=18;whiteSpace=wrap;fontSize=15;strokeColor=#3a414a;strokeOpacity=100;strokeWidth=4.5;rounded=1;arcSize=12;startArrow=none;endArrow=none;exitX=0.5;exitY=1.03;exitPerimeter=0;entryX=0.5;entryY=-0.037;entryPerimeter=0;lucidId=1k.NEYei7xJI;textOpacity=80;" parent="eGAmUR279255d1PDw6Jc-125" source="eGAmUR279255d1PDw6Jc-84" target="eGAmUR279255d1PDw6Jc-86" edge="1">
          <mxGeometry width="100" height="100" relative="1" as="geometry" />
        </mxCell>
        <mxCell id="eGAmUR279255d1PDw6Jc-86" value="CheckedOut" style="shape=ellipse;strokeWidth=6;fontSize=15;textOpacity=80;" parent="eGAmUR279255d1PDw6Jc-125" vertex="1">
          <mxGeometry x="656" y="1965" width="120" height="60" as="geometry" />
        </mxCell>
        <mxCell id="eGAmUR279255d1PDw6Jc-87" value="" style="html=1;jettySize=18;whiteSpace=wrap;fontSize=15;strokeColor=#3a414a;strokeOpacity=100;strokeWidth=4.5;rounded=1;arcSize=12;startArrow=none;endArrow=none;exitX=-0.016;exitY=0.5;exitPerimeter=0;entryX=0.5;entryY=-0.03;entryPerimeter=0;lucidId=7k.NJDdK~9hI;textOpacity=80;" parent="eGAmUR279255d1PDw6Jc-125" source="eGAmUR279255d1PDw6Jc-84" target="eGAmUR279255d1PDw6Jc-90" edge="1">
          <mxGeometry width="100" height="100" relative="1" as="geometry" />
        </mxCell>
        <mxCell id="eGAmUR279255d1PDw6Jc-88" value="" style="html=1;jettySize=18;whiteSpace=wrap;fontSize=15;strokeColor=#3a414a;strokeOpacity=100;strokeWidth=4.5;rounded=1;arcSize=12;startArrow=none;endArrow=none;exitX=1.016;exitY=0.5;exitPerimeter=0;entryX=-0.016;entryY=0.5;entryPerimeter=0;lucidId=8k.Nfq~yMeq9;textOpacity=80;" parent="eGAmUR279255d1PDw6Jc-125" source="eGAmUR279255d1PDw6Jc-84" target="eGAmUR279255d1PDw6Jc-89" edge="1">
          <mxGeometry width="100" height="100" relative="1" as="geometry" />
        </mxCell>
        <mxCell id="eGAmUR279255d1PDw6Jc-89" value="Damaged" style="shape=ellipse;strokeWidth=6;fontSize=15;textOpacity=80;" parent="eGAmUR279255d1PDw6Jc-125" vertex="1">
          <mxGeometry x="835" y="1875" width="143" height="75" as="geometry" />
        </mxCell>
        <mxCell id="eGAmUR279255d1PDw6Jc-90" value="Available" style="shape=ellipse;strokeWidth=6;fontSize=15;textOpacity=80;" parent="eGAmUR279255d1PDw6Jc-125" vertex="1">
          <mxGeometry x="480" y="1935" width="143" height="75" as="geometry" />
        </mxCell>
        <mxCell id="eGAmUR279255d1PDw6Jc-126" style="edgeStyle=none;shape=connector;rounded=1;orthogonalLoop=1;jettySize=auto;html=1;exitX=1;exitY=0.75;exitDx=0;exitDy=0;strokeColor=#3a414a;strokeWidth=4.5;align=center;verticalAlign=middle;arcSize=12;fontFamily=Helvetica;fontSize=15;fontColor=default;labelBackgroundColor=default;startArrow=none;endArrow=none;endFill=1;startFill=0;textOpacity=80;" parent="eGAmUR279255d1PDw6Jc-125" source="eGAmUR279255d1PDw6Jc-91" edge="1">
          <mxGeometry relative="1" as="geometry">
            <mxPoint x="2820" y="965" as="targetPoint" />
          </mxGeometry>
        </mxCell>
        <mxCell id="eGAmUR279255d1PDw6Jc-91" value="Patrons" style="html=1;overflow=block;blockSpacing=1;whiteSpace=wrap;fontSize=15;fontColor=default;spacing=9;strokeColor=#3a414a;strokeOpacity=100;fillOpacity=100;rounded=1;absoluteArcSize=1;arcSize=9;fillColor=#ffffff;strokeWidth=4.5;lucidId=Lw.NLUe01jBl;textOpacity=80;" parent="eGAmUR279255d1PDw6Jc-125" vertex="1">
          <mxGeometry x="2175" y="786" width="300" height="150" as="geometry" />
        </mxCell>
        <mxCell id="eGAmUR279255d1PDw6Jc-92" value="Donation" style="html=1;overflow=block;blockSpacing=1;whiteSpace=wrap;rhombus;fontSize=15;fontColor=default;spacing=3.8;strokeColor=#3a414a;strokeOpacity=100;fillOpacity=100;rounded=1;absoluteArcSize=1;arcSize=9;fillColor=#ffffff;strokeWidth=4.5;lucidId=Ow.NtlfTqsT4;textOpacity=80;" parent="eGAmUR279255d1PDw6Jc-125" vertex="1">
          <mxGeometry x="1350" y="797" width="240" height="150" as="geometry" />
        </mxCell>
        <mxCell id="eGAmUR279255d1PDw6Jc-93" value="" style="html=1;jettySize=18;whiteSpace=wrap;fontSize=15;strokeColor=#3a414a;strokeOpacity=100;strokeWidth=4.5;rounded=1;arcSize=12;startArrow=none;endArrow=none;exitX=1.009;exitY=0.5;exitPerimeter=0;entryX=0.001;entryY=0.5;entryPerimeter=0;lucidId=-w.Nb8rJoifG;textOpacity=80;" parent="eGAmUR279255d1PDw6Jc-125" source="eGAmUR279255d1PDw6Jc-61" target="eGAmUR279255d1PDw6Jc-92" edge="1">
          <mxGeometry width="100" height="100" relative="1" as="geometry" />
        </mxCell>
        <mxCell id="eGAmUR279255d1PDw6Jc-94" value="" style="html=1;jettySize=18;whiteSpace=wrap;fontSize=15;strokeColor=#3a414a;strokeOpacity=100;strokeWidth=4.5;rounded=1;arcSize=12;startArrow=none;endArrow=none;exitX=0.999;exitY=0.5;exitPerimeter=0;entryX=-0.007;entryY=0.575;entryPerimeter=0;lucidId=gy.N_j.fROvV;textOpacity=80;" parent="eGAmUR279255d1PDw6Jc-125" source="eGAmUR279255d1PDw6Jc-92" target="eGAmUR279255d1PDw6Jc-91" edge="1">
          <mxGeometry width="100" height="100" relative="1" as="geometry" />
        </mxCell>
        <mxCell id="eGAmUR279255d1PDw6Jc-95" value="Patron_ID" style="shape=ellipse;strokeWidth=6;fontSize=15;textOpacity=80;fontStyle=4" parent="eGAmUR279255d1PDw6Jc-125" vertex="1">
          <mxGeometry x="1935" y="465" width="180" height="75" as="geometry" />
        </mxCell>
        <mxCell id="eGAmUR279255d1PDw6Jc-96" value="" style="html=1;jettySize=18;whiteSpace=wrap;fontSize=13;strokeColor=#3a414a;strokeOpacity=100;strokeWidth=4.5;rounded=1;arcSize=12;startArrow=none;endArrow=none;endFill=1;exitX=0.5;exitY=-0.015;exitPerimeter=0;entryX=0.5;entryY=1.03;entryPerimeter=0;lucidId=Sz.N8muI5Tj.;startFill=0;movable=0;resizable=0;rotatable=0;deletable=0;editable=0;locked=1;connectable=0;" parent="eGAmUR279255d1PDw6Jc-125" source="eGAmUR279255d1PDw6Jc-91" target="eGAmUR279255d1PDw6Jc-95" edge="1">
          <mxGeometry width="100" height="100" relative="1" as="geometry" />
        </mxCell>
        <mxCell id="eGAmUR279255d1PDw6Jc-98" value="Name" style="shape=ellipse;strokeWidth=6;fontSize=15;textOpacity=80;" parent="eGAmUR279255d1PDw6Jc-125" vertex="1">
          <mxGeometry x="1920" y="210" width="210" height="90" as="geometry" />
        </mxCell>
        <mxCell id="eGAmUR279255d1PDw6Jc-99" value="" style="html=1;jettySize=18;whiteSpace=wrap;fontSize=15;strokeColor=#3a414a;strokeOpacity=100;strokeWidth=4.5;rounded=1;arcSize=12;startArrow=none;endArrow=none;endFill=1;exitX=-0.011;exitY=0.5;exitPerimeter=0;entryX=1.015;entryY=0.5;entryPerimeter=0;lucidId=4B.N2U.56E3J;startFill=0;textOpacity=80;" parent="eGAmUR279255d1PDw6Jc-125" source="eGAmUR279255d1PDw6Jc-98" target="eGAmUR279255d1PDw6Jc-100" edge="1">
          <mxGeometry width="100" height="100" relative="1" as="geometry" />
        </mxCell>
        <mxCell id="eGAmUR279255d1PDw6Jc-100" value="First_Name" style="shape=ellipse;strokeWidth=6;fontSize=15;textOpacity=80;" parent="eGAmUR279255d1PDw6Jc-125" vertex="1">
          <mxGeometry x="1710" y="75" width="150" height="60" as="geometry" />
        </mxCell>
        <mxCell id="eGAmUR279255d1PDw6Jc-101" value="" style="html=1;jettySize=18;whiteSpace=wrap;fontSize=15;strokeColor=#3a414a;strokeOpacity=100;strokeWidth=4.5;rounded=1;arcSize=12;startArrow=none;endArrow=none;endFill=1;exitX=0.5;exitY=-0.025;exitPerimeter=0;lucidId=cC.N-YrFx.5s;startFill=0;textOpacity=80;" parent="eGAmUR279255d1PDw6Jc-125" source="eGAmUR279255d1PDw6Jc-98" edge="1">
          <mxGeometry width="100" height="100" relative="1" as="geometry">
            <mxPoint x="2063" y="62" as="targetPoint" />
          </mxGeometry>
        </mxCell>
        <mxCell id="eGAmUR279255d1PDw6Jc-102" value="Last_Name" style="shape=ellipse;strokeWidth=6;fontSize=15;textOpacity=80;" parent="eGAmUR279255d1PDw6Jc-125" vertex="1">
          <mxGeometry x="1965" width="195" height="60" as="geometry" />
        </mxCell>
        <mxCell id="eGAmUR279255d1PDw6Jc-103" value="" style="html=1;jettySize=18;whiteSpace=wrap;fontSize=15;strokeColor=#3a414a;strokeOpacity=100;strokeWidth=4.5;rounded=1;arcSize=12;startArrow=none;endArrow=none;endFill=1;exitX=0.771;exitY=-0.015;exitPerimeter=0;entryX=0.5;entryY=1.03;entryPerimeter=0;lucidId=aD.NhcuTuw~i;startFill=0;textOpacity=80;" parent="eGAmUR279255d1PDw6Jc-125" source="eGAmUR279255d1PDw6Jc-91" target="eGAmUR279255d1PDw6Jc-104" edge="1">
          <mxGeometry width="100" height="100" relative="1" as="geometry" />
        </mxCell>
        <mxCell id="eGAmUR279255d1PDw6Jc-104" value="Email_Address" style="shape=ellipse;strokeWidth=6;fontSize=15;textOpacity=80;" parent="eGAmUR279255d1PDw6Jc-125" vertex="1">
          <mxGeometry x="2235" y="210" width="180" height="75" as="geometry" />
        </mxCell>
        <mxCell id="eGAmUR279255d1PDw6Jc-105" value="" style="html=1;jettySize=18;whiteSpace=wrap;fontSize=15;strokeColor=#3a414a;strokeOpacity=100;strokeWidth=4.5;rounded=1;arcSize=12;startArrow=none;endArrow=none;endFill=1;exitX=1.007;exitY=0.5;exitPerimeter=0;entryX=0.5;entryY=1.025;entryPerimeter=0;lucidId=8D.NgyDWKfum;startFill=0;textOpacity=80;" parent="eGAmUR279255d1PDw6Jc-125" source="eGAmUR279255d1PDw6Jc-91" target="eGAmUR279255d1PDw6Jc-106" edge="1">
          <mxGeometry width="100" height="100" relative="1" as="geometry" />
        </mxCell>
        <mxCell id="eGAmUR279255d1PDw6Jc-106" value="CellPhone_Number" style="shape=ellipse;strokeWidth=6;fontSize=15;textOpacity=80;" parent="eGAmUR279255d1PDw6Jc-125" vertex="1">
          <mxGeometry x="2610" y="330" width="165" height="90" as="geometry" />
        </mxCell>
        <mxCell id="eGAmUR279255d1PDw6Jc-107" value="" style="html=1;jettySize=18;whiteSpace=wrap;fontSize=15;strokeColor=#3a414a;strokeOpacity=100;strokeWidth=4.5;rounded=1;arcSize=12;startArrow=none;endArrow=none;endFill=1;exitX=0.5;exitY=-0.025;exitPerimeter=0;entryX=0.5;entryY=1.038;entryPerimeter=0;lucidId=oE.NQwb4N3pj;startFill=0;textOpacity=80;" parent="eGAmUR279255d1PDw6Jc-125" source="eGAmUR279255d1PDw6Jc-106" target="eGAmUR279255d1PDw6Jc-108" edge="1">
          <mxGeometry width="100" height="100" relative="1" as="geometry" />
        </mxCell>
        <mxCell id="eGAmUR279255d1PDw6Jc-108" value="Mobile_Cell" style="shape=ellipse;strokeWidth=6;fontSize=15;textOpacity=80;" parent="eGAmUR279255d1PDw6Jc-125" vertex="1">
          <mxGeometry x="2633" y="75" width="120" height="60" as="geometry" />
        </mxCell>
        <mxCell id="eGAmUR279255d1PDw6Jc-109" value="" style="html=1;jettySize=18;whiteSpace=wrap;fontSize=15;strokeColor=#3a414a;strokeOpacity=100;strokeWidth=4.5;rounded=1;arcSize=12;startArrow=none;endArrow=none;endFill=1;exitX=1.014;exitY=0.5;exitPerimeter=0;entryX=0.5;entryY=1.038;entryPerimeter=0;lucidId=zE.N7BWNac32;startFill=0;textOpacity=80;" parent="eGAmUR279255d1PDw6Jc-125" source="eGAmUR279255d1PDw6Jc-106" target="eGAmUR279255d1PDw6Jc-110" edge="1">
          <mxGeometry width="100" height="100" relative="1" as="geometry" />
        </mxCell>
        <mxCell id="eGAmUR279255d1PDw6Jc-110" value="Home_Cell" style="shape=ellipse;strokeWidth=6;fontSize=15;textOpacity=80;" parent="eGAmUR279255d1PDw6Jc-125" vertex="1">
          <mxGeometry x="2805" y="105" width="120" height="60" as="geometry" />
        </mxCell>
        <mxCell id="eGAmUR279255d1PDw6Jc-111" value="" style="html=1;jettySize=18;whiteSpace=wrap;fontSize=15;strokeColor=#3a414a;strokeOpacity=100;strokeWidth=4.5;rounded=1;arcSize=12;startArrow=none;endArrow=none;endFill=1;exitX=-0.014;exitY=0.5;exitPerimeter=0;entryX=0.5;entryY=1.038;entryPerimeter=0;lucidId=LE.Nro4S91PY;startFill=0;textOpacity=80;" parent="eGAmUR279255d1PDw6Jc-125" source="eGAmUR279255d1PDw6Jc-106" target="eGAmUR279255d1PDw6Jc-112" edge="1">
          <mxGeometry width="100" height="100" relative="1" as="geometry" />
        </mxCell>
        <mxCell id="eGAmUR279255d1PDw6Jc-112" value="Buissness_Cell" style="shape=ellipse;strokeWidth=6;fontSize=15;textOpacity=80;" parent="eGAmUR279255d1PDw6Jc-125" vertex="1">
          <mxGeometry x="2490" y="120" width="120" height="60" as="geometry" />
        </mxCell>
        <mxCell id="eGAmUR279255d1PDw6Jc-113" value="" style="html=1;jettySize=18;whiteSpace=wrap;fontSize=15;strokeColor=#3a414a;strokeOpacity=100;strokeWidth=4.5;rounded=1;arcSize=12;startArrow=none;endArrow=none;exitX=0.5;exitY=1.015;exitPerimeter=0;entryX=0.5;entryY=-0.019;entryPerimeter=0;lucidId=rF.Nk78lTFVh;textOpacity=80;" parent="eGAmUR279255d1PDw6Jc-125" source="eGAmUR279255d1PDw6Jc-91" target="eGAmUR279255d1PDw6Jc-114" edge="1">
          <mxGeometry width="100" height="100" relative="1" as="geometry" />
        </mxCell>
        <mxCell id="eGAmUR279255d1PDw6Jc-114" value="Mailing_Address" style="shape=ellipse;strokeWidth=6;fontSize=15;textOpacity=80;" parent="eGAmUR279255d1PDw6Jc-125" vertex="1">
          <mxGeometry x="2230" y="1185" width="215" height="120" as="geometry" />
        </mxCell>
        <mxCell id="eGAmUR279255d1PDw6Jc-115" value="" style="html=1;jettySize=18;whiteSpace=wrap;fontSize=15;strokeColor=#3a414a;strokeOpacity=100;strokeWidth=4.5;rounded=1;arcSize=12;startArrow=none;endArrow=none;exitX=0.5;exitY=1.019;exitPerimeter=0;entryX=0.5;entryY=-0.037;entryPerimeter=0;lucidId=_F.NS5dodU0_;textOpacity=80;" parent="eGAmUR279255d1PDw6Jc-125" source="eGAmUR279255d1PDw6Jc-114" target="eGAmUR279255d1PDw6Jc-116" edge="1">
          <mxGeometry width="100" height="100" relative="1" as="geometry" />
        </mxCell>
        <mxCell id="eGAmUR279255d1PDw6Jc-116" value="City" style="shape=ellipse;strokeWidth=6;fontSize=15;textOpacity=80;" parent="eGAmUR279255d1PDw6Jc-125" vertex="1">
          <mxGeometry x="2265" y="1530" width="165" height="75" as="geometry" />
        </mxCell>
        <mxCell id="eGAmUR279255d1PDw6Jc-117" value="" style="html=1;jettySize=18;whiteSpace=wrap;fontSize=15;strokeColor=#3a414a;strokeOpacity=100;strokeWidth=4.5;rounded=1;arcSize=12;startArrow=none;endArrow=none;entryX=0.5;entryY=-0.037;entryPerimeter=0;lucidId=bG.N46yHAq02;textOpacity=80;" parent="eGAmUR279255d1PDw6Jc-125" edge="1">
          <mxGeometry width="100" height="100" relative="1" as="geometry">
            <mxPoint x="2390" y="1305" as="sourcePoint" />
            <mxPoint x="2571.84" y="1554.9999999999998" as="targetPoint" />
          </mxGeometry>
        </mxCell>
        <mxCell id="eGAmUR279255d1PDw6Jc-118" value="State" style="shape=ellipse;strokeWidth=6;fontSize=15;textOpacity=80;" parent="eGAmUR279255d1PDw6Jc-125" vertex="1">
          <mxGeometry x="2550" y="1520" width="130" height="70" as="geometry" />
        </mxCell>
        <mxCell id="eGAmUR279255d1PDw6Jc-119" value="" style="html=1;jettySize=18;whiteSpace=wrap;fontSize=15;strokeColor=#3a414a;strokeOpacity=100;strokeWidth=4.5;rounded=1;arcSize=12;startArrow=none;endArrow=none;exitX=1.009;exitY=0.5;exitPerimeter=0;entryX=-0.019;entryY=0.5;entryPerimeter=0;lucidId=lG.NGaEE5w9L;textOpacity=80;" parent="eGAmUR279255d1PDw6Jc-125" source="eGAmUR279255d1PDw6Jc-114" target="eGAmUR279255d1PDw6Jc-120" edge="1">
          <mxGeometry width="100" height="100" relative="1" as="geometry" />
        </mxCell>
        <mxCell id="eGAmUR279255d1PDw6Jc-120" value="Zip_Code" style="shape=ellipse;strokeWidth=6;fontSize=15;textOpacity=80;" parent="eGAmUR279255d1PDw6Jc-125" vertex="1">
          <mxGeometry x="2685" y="1290" width="120" height="60" as="geometry" />
        </mxCell>
        <mxCell id="eGAmUR279255d1PDw6Jc-97" value="" style="html=1;jettySize=18;whiteSpace=wrap;fontSize=15;strokeColor=#3a414a;strokeOpacity=100;strokeWidth=4.5;rounded=1;arcSize=12;startArrow=none;endArrow=none;endFill=1;exitX=0.5;exitY=-0.03;exitPerimeter=0;entryX=0.5;entryY=1.025;entryPerimeter=0;lucidId=QB.N~n38YrCF;startFill=0;textOpacity=80;" parent="eGAmUR279255d1PDw6Jc-125" source="eGAmUR279255d1PDw6Jc-95" target="eGAmUR279255d1PDw6Jc-98" edge="1">
          <mxGeometry width="100" height="100" relative="1" as="geometry" />
        </mxCell>
        <mxCell id="eGAmUR279255d1PDw6Jc-472" style="edgeStyle=none;shape=connector;rounded=1;orthogonalLoop=1;jettySize=auto;html=1;strokeColor=#3a414a;strokeWidth=4.5;align=center;verticalAlign=middle;arcSize=12;fontFamily=Helvetica;fontSize=13;fontColor=default;labelBackgroundColor=default;startArrow=none;endArrow=none;endFill=1;startFill=0;" parent="eGAmUR279255d1PDw6Jc-125" source="eGAmUR279255d1PDw6Jc-401" edge="1">
          <mxGeometry relative="1" as="geometry">
            <mxPoint x="1430" y="2080" as="targetPoint" />
          </mxGeometry>
        </mxCell>
        <mxCell id="eGAmUR279255d1PDw6Jc-474" style="edgeStyle=none;shape=connector;rounded=1;orthogonalLoop=1;jettySize=auto;html=1;strokeColor=#3a414a;strokeWidth=4.5;align=center;verticalAlign=middle;arcSize=12;fontFamily=Helvetica;fontSize=13;fontColor=default;labelBackgroundColor=default;startArrow=none;endArrow=none;endFill=1;startFill=0;" parent="eGAmUR279255d1PDw6Jc-125" source="eGAmUR279255d1PDw6Jc-401" edge="1">
          <mxGeometry relative="1" as="geometry">
            <mxPoint x="1620" y="2080" as="targetPoint" />
          </mxGeometry>
        </mxCell>
        <mxCell id="eGAmUR279255d1PDw6Jc-476" style="edgeStyle=none;shape=connector;rounded=1;orthogonalLoop=1;jettySize=auto;html=1;exitX=0.75;exitY=1;exitDx=0;exitDy=0;strokeColor=#3a414a;strokeWidth=4.5;align=center;verticalAlign=middle;arcSize=12;fontFamily=Helvetica;fontSize=13;fontColor=default;labelBackgroundColor=default;startArrow=none;endArrow=none;endFill=1;startFill=0;" parent="eGAmUR279255d1PDw6Jc-125" source="eGAmUR279255d1PDw6Jc-401" edge="1">
          <mxGeometry relative="1" as="geometry">
            <mxPoint x="1830" y="2090" as="targetPoint" />
          </mxGeometry>
        </mxCell>
        <mxCell id="eGAmUR279255d1PDw6Jc-478" style="edgeStyle=none;shape=connector;rounded=1;orthogonalLoop=1;jettySize=auto;html=1;exitX=0;exitY=1;exitDx=0;exitDy=0;strokeColor=#3a414a;strokeWidth=4.5;align=center;verticalAlign=middle;arcSize=12;fontFamily=Helvetica;fontSize=13;fontColor=default;labelBackgroundColor=default;startArrow=none;endArrow=none;endFill=1;startFill=0;" parent="eGAmUR279255d1PDw6Jc-125" source="eGAmUR279255d1PDw6Jc-401" edge="1">
          <mxGeometry relative="1" as="geometry">
            <mxPoint x="1210" y="2170" as="targetPoint" />
          </mxGeometry>
        </mxCell>
        <mxCell id="eGAmUR279255d1PDw6Jc-480" style="edgeStyle=none;shape=connector;rounded=1;orthogonalLoop=1;jettySize=auto;html=1;exitX=1;exitY=1;exitDx=0;exitDy=0;strokeColor=#3a414a;strokeWidth=4.5;align=center;verticalAlign=middle;arcSize=12;fontFamily=Helvetica;fontSize=13;fontColor=default;labelBackgroundColor=default;startArrow=none;endArrow=none;endFill=1;startFill=0;" parent="eGAmUR279255d1PDw6Jc-125" source="eGAmUR279255d1PDw6Jc-401" edge="1">
          <mxGeometry relative="1" as="geometry">
            <mxPoint x="2050" y="2130" as="targetPoint" />
          </mxGeometry>
        </mxCell>
        <mxCell id="eGAmUR279255d1PDw6Jc-401" value="Transactions" style="html=1;overflow=block;blockSpacing=1;whiteSpace=wrap;fontSize=15;fontColor=default;spacing=9;strokeColor=#3a414a;strokeOpacity=100;fillOpacity=100;rounded=1;absoluteArcSize=1;arcSize=9;fillColor=#ffffff;strokeWidth=4.5;lucidId=Lw.NLUe01jBl;textOpacity=80;" parent="eGAmUR279255d1PDw6Jc-125" vertex="1">
          <mxGeometry x="1450" y="1680" width="310" height="150" as="geometry" />
        </mxCell>
        <mxCell id="eGAmUR279255d1PDw6Jc-470" style="edgeStyle=none;shape=connector;rounded=1;orthogonalLoop=1;jettySize=auto;html=1;entryX=0;entryY=0.5;entryDx=0;entryDy=0;strokeColor=#3a414a;strokeWidth=4.5;align=center;verticalAlign=middle;arcSize=12;fontFamily=Helvetica;fontSize=13;fontColor=default;labelBackgroundColor=default;startArrow=none;endArrow=none;endFill=1;startFill=0;" parent="eGAmUR279255d1PDw6Jc-125" source="eGAmUR279255d1PDw6Jc-466" target="eGAmUR279255d1PDw6Jc-401" edge="1">
          <mxGeometry relative="1" as="geometry" />
        </mxCell>
        <mxCell id="eGAmUR279255d1PDw6Jc-487" style="edgeStyle=none;shape=connector;rounded=1;orthogonalLoop=1;jettySize=auto;html=1;strokeColor=#3a414a;strokeWidth=4.5;align=center;verticalAlign=middle;arcSize=12;fontFamily=Helvetica;fontSize=13;fontColor=default;labelBackgroundColor=default;startArrow=none;endArrow=none;endFill=1;startFill=0;exitX=0.25;exitY=0;exitDx=0;exitDy=0;" parent="eGAmUR279255d1PDw6Jc-125" source="eGAmUR279255d1PDw6Jc-80" edge="1">
          <mxGeometry relative="1" as="geometry">
            <mxPoint x="1200" y="1560" as="targetPoint" />
            <mxPoint x="850" y="1490" as="sourcePoint" />
          </mxGeometry>
        </mxCell>
        <mxCell id="eGAmUR279255d1PDw6Jc-466" value="Checkout/Return" style="html=1;overflow=block;blockSpacing=1;whiteSpace=wrap;rhombus;fontSize=15;fontColor=default;spacing=3.8;strokeColor=#3a414a;strokeOpacity=100;fillOpacity=100;rounded=1;absoluteArcSize=1;arcSize=9;fillColor=#ffffff;strokeWidth=4.5;lucidId=Ow.NtlfTqsT4;textOpacity=80;" parent="eGAmUR279255d1PDw6Jc-125" vertex="1">
          <mxGeometry x="1140" y="1530" width="200" height="150" as="geometry" />
        </mxCell>
        <mxCell id="eGAmUR279255d1PDw6Jc-468" style="edgeStyle=none;shape=connector;rounded=1;orthogonalLoop=1;jettySize=auto;html=1;strokeColor=#3a414a;strokeWidth=4.5;align=center;verticalAlign=middle;arcSize=12;fontFamily=Helvetica;fontSize=13;fontColor=default;labelBackgroundColor=default;startArrow=none;endArrow=none;endFill=1;startFill=0;" parent="eGAmUR279255d1PDw6Jc-125" source="eGAmUR279255d1PDw6Jc-467" target="eGAmUR279255d1PDw6Jc-91" edge="1">
          <mxGeometry relative="1" as="geometry" />
        </mxCell>
        <mxCell id="eGAmUR279255d1PDw6Jc-467" value="Association" style="html=1;overflow=block;blockSpacing=1;whiteSpace=wrap;rhombus;fontSize=15;fontColor=default;spacing=3.8;strokeColor=#3a414a;strokeOpacity=100;fillOpacity=100;rounded=1;absoluteArcSize=1;arcSize=9;fillColor=#ffffff;strokeWidth=4.5;lucidId=Ow.NtlfTqsT4;textOpacity=80;" parent="eGAmUR279255d1PDw6Jc-125" vertex="1">
          <mxGeometry x="1770" y="1280" width="200" height="150" as="geometry" />
        </mxCell>
        <mxCell id="eGAmUR279255d1PDw6Jc-469" style="edgeStyle=none;shape=connector;rounded=1;orthogonalLoop=1;jettySize=auto;html=1;entryX=0.64;entryY=0.667;entryDx=0;entryDy=0;entryPerimeter=0;strokeColor=#3a414a;strokeWidth=4.5;align=center;verticalAlign=middle;arcSize=12;fontFamily=Helvetica;fontSize=13;fontColor=default;labelBackgroundColor=default;startArrow=none;endArrow=none;endFill=1;startFill=0;" parent="eGAmUR279255d1PDw6Jc-125" source="eGAmUR279255d1PDw6Jc-466" target="eGAmUR279255d1PDw6Jc-80" edge="1">
          <mxGeometry relative="1" as="geometry" />
        </mxCell>
        <mxCell id="eGAmUR279255d1PDw6Jc-471" style="edgeStyle=none;shape=connector;rounded=1;orthogonalLoop=1;jettySize=auto;html=1;exitX=0;exitY=1;exitDx=0;exitDy=0;entryX=0.606;entryY=0.02;entryDx=0;entryDy=0;entryPerimeter=0;strokeColor=#3a414a;strokeWidth=4.5;align=center;verticalAlign=middle;arcSize=12;fontFamily=Helvetica;fontSize=13;fontColor=default;labelBackgroundColor=default;startArrow=none;endArrow=none;endFill=1;startFill=0;" parent="eGAmUR279255d1PDw6Jc-125" source="eGAmUR279255d1PDw6Jc-467" target="eGAmUR279255d1PDw6Jc-401" edge="1">
          <mxGeometry relative="1" as="geometry" />
        </mxCell>
        <mxCell id="eGAmUR279255d1PDw6Jc-482" value="&lt;font style=&quot;font-size: 32px;&quot;&gt;1&lt;/font&gt;" style="text;html=1;align=center;verticalAlign=middle;whiteSpace=wrap;rounded=0;fontFamily=Helvetica;fontSize=13;fontColor=default;labelBackgroundColor=default;resizable=0;" parent="eGAmUR279255d1PDw6Jc-125" vertex="1">
          <mxGeometry x="1310" y="1710" width="60" height="30" as="geometry" />
        </mxCell>
        <mxCell id="eGAmUR279255d1PDw6Jc-483" value="&lt;div style=&quot;text-align: center;&quot;&gt;&lt;span style=&quot;background-color: light-dark(#ffffff, var(--ge-dark-color, #121212)); color: light-dark(rgb(0, 0, 0), rgb(255, 255, 255)); font-size: 32px;&quot;&gt;N&lt;/span&gt;&lt;/div&gt;" style="text;whiteSpace=wrap;html=1;fontFamily=Helvetica;fontSize=13;fontColor=default;labelBackgroundColor=default;resizable=0;" parent="eGAmUR279255d1PDw6Jc-125" vertex="1">
          <mxGeometry x="950" y="1588.5" width="50" height="60" as="geometry" />
        </mxCell>
        <mxCell id="eGAmUR279255d1PDw6Jc-488" value="&lt;span style=&quot;color: rgb(0, 0, 0); font-family: Helvetica; font-size: 32px; font-style: normal; font-variant-ligatures: normal; font-variant-caps: normal; font-weight: 400; letter-spacing: normal; orphans: 2; text-align: center; text-indent: 0px; text-transform: none; widows: 2; word-spacing: 0px; -webkit-text-stroke-width: 0px; white-space: normal; background-color: rgb(255, 255, 255); text-decoration-thickness: initial; text-decoration-style: initial; text-decoration-color: initial; display: inline !important; float: none;&quot;&gt;N&lt;/span&gt;" style="text;whiteSpace=wrap;html=1;fontFamily=Helvetica;fontSize=13;fontColor=default;labelBackgroundColor=default;resizable=0;" parent="eGAmUR279255d1PDw6Jc-125" vertex="1">
          <mxGeometry x="1000" y="1470" width="60" height="60" as="geometry" />
        </mxCell>
        <mxCell id="eGAmUR279255d1PDw6Jc-492" style="edgeStyle=none;shape=connector;rounded=1;orthogonalLoop=1;jettySize=auto;html=1;entryX=-0.011;entryY=0.189;entryDx=0;entryDy=0;strokeColor=#3a414a;strokeWidth=4.5;align=center;verticalAlign=middle;arcSize=12;fontFamily=Helvetica;fontSize=13;fontColor=default;labelBackgroundColor=default;startArrow=none;endArrow=none;endFill=1;startFill=0;entryPerimeter=0;" parent="eGAmUR279255d1PDw6Jc-125" target="eGAmUR279255d1PDw6Jc-401" edge="1">
          <mxGeometry relative="1" as="geometry">
            <mxPoint x="1320" y="1616" as="sourcePoint" />
            <mxPoint x="1479" y="1729" as="targetPoint" />
          </mxGeometry>
        </mxCell>
        <mxCell id="eGAmUR279255d1PDw6Jc-493" value="&lt;span style=&quot;color: rgb(0, 0, 0); font-family: Helvetica; font-size: 32px; font-style: normal; font-variant-ligatures: normal; font-variant-caps: normal; font-weight: 400; letter-spacing: normal; orphans: 2; text-align: center; text-indent: 0px; text-transform: none; widows: 2; word-spacing: 0px; -webkit-text-stroke-width: 0px; white-space: normal; background-color: rgb(255, 255, 255); text-decoration-thickness: initial; text-decoration-style: initial; text-decoration-color: initial; display: inline !important; float: none;&quot;&gt;M&lt;/span&gt;" style="text;whiteSpace=wrap;html=1;fontFamily=Helvetica;fontSize=13;fontColor=default;labelBackgroundColor=default;resizable=0;" parent="eGAmUR279255d1PDw6Jc-125" vertex="1">
          <mxGeometry x="1640" y="1420" width="60" height="60" as="geometry" />
        </mxCell>
        <mxCell id="eGAmUR279255d1PDw6Jc-494" value="&lt;span style=&quot;color: rgb(0, 0, 0); font-family: Helvetica; font-size: 32px; font-style: normal; font-variant-ligatures: normal; font-variant-caps: normal; font-weight: 400; letter-spacing: normal; orphans: 2; text-align: center; text-indent: 0px; text-transform: none; widows: 2; word-spacing: 0px; -webkit-text-stroke-width: 0px; white-space: normal; background-color: rgb(255, 255, 255); text-decoration-thickness: initial; text-decoration-style: initial; text-decoration-color: initial; display: inline !important; float: none;&quot;&gt;1&lt;/span&gt;" style="text;whiteSpace=wrap;html=1;fontFamily=Helvetica;fontSize=13;fontColor=default;labelBackgroundColor=default;resizable=0;" parent="eGAmUR279255d1PDw6Jc-125" vertex="1">
          <mxGeometry x="1980" y="1050" width="50" height="60" as="geometry" />
        </mxCell>
        <mxCell id="eGAmUR279255d1PDw6Jc-498" style="edgeStyle=none;shape=connector;rounded=1;orthogonalLoop=1;jettySize=auto;html=1;exitX=0;exitY=0;exitDx=0;exitDy=0;strokeColor=#3a414a;strokeWidth=4.5;align=center;verticalAlign=middle;arcSize=12;fontFamily=Helvetica;fontSize=13;fontColor=default;labelBackgroundColor=default;startArrow=none;endArrow=none;endFill=1;startFill=0;" parent="eGAmUR279255d1PDw6Jc-125" source="eGAmUR279255d1PDw6Jc-496" edge="1">
          <mxGeometry relative="1" as="geometry">
            <mxPoint x="1030" y="150" as="targetPoint" />
          </mxGeometry>
        </mxCell>
        <mxCell id="eGAmUR279255d1PDw6Jc-501" style="edgeStyle=none;shape=connector;rounded=1;orthogonalLoop=1;jettySize=auto;html=1;strokeColor=#3a414a;strokeWidth=4.5;align=center;verticalAlign=middle;arcSize=12;fontFamily=Helvetica;fontSize=13;fontColor=default;labelBackgroundColor=default;startArrow=none;endArrow=none;endFill=1;startFill=0;" parent="eGAmUR279255d1PDw6Jc-125" source="eGAmUR279255d1PDw6Jc-496" edge="1">
          <mxGeometry relative="1" as="geometry">
            <mxPoint x="1290" y="109.99999999999977" as="targetPoint" />
          </mxGeometry>
        </mxCell>
        <mxCell id="eGAmUR279255d1PDw6Jc-510" style="edgeStyle=none;shape=connector;rounded=1;orthogonalLoop=1;jettySize=auto;html=1;strokeColor=#3a414a;strokeWidth=4.5;align=center;verticalAlign=middle;arcSize=12;fontFamily=Helvetica;fontSize=13;fontColor=default;labelBackgroundColor=default;startArrow=none;endArrow=block;endFill=1;" parent="eGAmUR279255d1PDw6Jc-125" source="eGAmUR279255d1PDw6Jc-496" edge="1">
          <mxGeometry relative="1" as="geometry">
            <mxPoint x="1510" y="170.00000000000023" as="targetPoint" />
          </mxGeometry>
        </mxCell>
        <mxCell id="eGAmUR279255d1PDw6Jc-512" style="edgeStyle=none;shape=connector;rounded=1;orthogonalLoop=1;jettySize=auto;html=1;exitX=1;exitY=1;exitDx=0;exitDy=0;strokeColor=#3a414a;strokeWidth=4.5;align=center;verticalAlign=middle;arcSize=12;fontFamily=Helvetica;fontSize=13;fontColor=default;labelBackgroundColor=default;startArrow=none;endArrow=none;endFill=1;startFill=0;" parent="eGAmUR279255d1PDw6Jc-125" source="eGAmUR279255d1PDw6Jc-496" edge="1">
          <mxGeometry relative="1" as="geometry">
            <mxPoint x="1630" y="550" as="targetPoint" />
          </mxGeometry>
        </mxCell>
        <mxCell id="eGAmUR279255d1PDw6Jc-496" value="Authors" style="html=1;overflow=block;blockSpacing=1;whiteSpace=wrap;fontSize=15;fontColor=default;fontStyle=1;spacing=3.8;strokeColor=#3a414a;strokeOpacity=100;fillOpacity=100;rounded=1;absoluteArcSize=1;arcSize=9;fillColor=#ffffff;strokeWidth=4.5;lucidId=j2_NHzCVTF-l;textOpacity=80;" parent="eGAmUR279255d1PDw6Jc-125" vertex="1">
          <mxGeometry x="1230" y="370" width="262" height="95" as="geometry" />
        </mxCell>
        <mxCell id="eGAmUR279255d1PDw6Jc-500" value="Author_ID" style="shape=ellipse;strokeWidth=6;fontSize=15;textOpacity=80;fontStyle=4" parent="eGAmUR279255d1PDw6Jc-125" vertex="1">
          <mxGeometry x="930" y="70" width="180" height="90" as="geometry" />
        </mxCell>
        <mxCell id="eGAmUR279255d1PDw6Jc-503" style="edgeStyle=none;shape=connector;rounded=1;orthogonalLoop=1;jettySize=auto;html=1;strokeColor=#3a414a;strokeWidth=4.5;align=center;verticalAlign=middle;arcSize=12;fontFamily=Helvetica;fontSize=13;fontColor=default;labelBackgroundColor=default;startArrow=none;endArrow=none;endFill=1;startFill=0;" parent="eGAmUR279255d1PDw6Jc-125" source="eGAmUR279255d1PDw6Jc-502" edge="1">
          <mxGeometry relative="1" as="geometry">
            <mxPoint x="1150" y="-80.00000000000023" as="targetPoint" />
          </mxGeometry>
        </mxCell>
        <mxCell id="eGAmUR279255d1PDw6Jc-505" style="edgeStyle=none;shape=connector;rounded=1;orthogonalLoop=1;jettySize=auto;html=1;strokeColor=#3a414a;strokeWidth=4.5;align=center;verticalAlign=middle;arcSize=12;fontFamily=Helvetica;fontSize=13;fontColor=default;labelBackgroundColor=default;startArrow=none;endArrow=none;endFill=1;startFill=0;" parent="eGAmUR279255d1PDw6Jc-125" source="eGAmUR279255d1PDw6Jc-502" edge="1">
          <mxGeometry relative="1" as="geometry">
            <mxPoint x="1330" y="-100.00000000000023" as="targetPoint" />
          </mxGeometry>
        </mxCell>
        <mxCell id="eGAmUR279255d1PDw6Jc-508" style="edgeStyle=none;shape=connector;rounded=1;orthogonalLoop=1;jettySize=auto;html=1;strokeColor=#3a414a;strokeWidth=4.5;align=center;verticalAlign=middle;arcSize=12;fontFamily=Helvetica;fontSize=13;fontColor=default;labelBackgroundColor=default;startArrow=none;endArrow=none;endFill=1;startFill=0;" parent="eGAmUR279255d1PDw6Jc-125" edge="1">
          <mxGeometry relative="1" as="geometry">
            <mxPoint x="1510" y="-40.00000000000023" as="targetPoint" />
            <mxPoint x="1332.5806451612902" y="69.99999999999977" as="sourcePoint" />
          </mxGeometry>
        </mxCell>
        <mxCell id="eGAmUR279255d1PDw6Jc-502" value="Full_Name" style="shape=ellipse;strokeWidth=6;fontSize=15;textOpacity=80;" parent="eGAmUR279255d1PDw6Jc-125" vertex="1">
          <mxGeometry x="1170" y="30" width="180" height="90" as="geometry" />
        </mxCell>
        <mxCell id="eGAmUR279255d1PDw6Jc-511" value="DoB" style="shape=ellipse;strokeWidth=6;fontSize=15;textOpacity=80;" parent="eGAmUR279255d1PDw6Jc-125" vertex="1">
          <mxGeometry x="1430" y="105" width="180" height="90" as="geometry" />
        </mxCell>
        <mxCell id="eGAmUR279255d1PDw6Jc-513" value="PublishersAssoc" style="shape=ellipse;strokeWidth=6;fontSize=15;textOpacity=80;" parent="eGAmUR279255d1PDw6Jc-125" vertex="1">
          <mxGeometry x="1560" y="530" width="180" height="90" as="geometry" />
        </mxCell>
        <mxCell id="eGAmUR279255d1PDw6Jc-515" style="edgeStyle=none;shape=connector;rounded=1;orthogonalLoop=1;jettySize=auto;html=1;exitX=1;exitY=0;exitDx=0;exitDy=0;strokeColor=#3a414a;strokeWidth=4.5;align=center;verticalAlign=middle;arcSize=12;fontFamily=Helvetica;fontSize=13;fontColor=default;labelBackgroundColor=default;startArrow=none;endArrow=none;endFill=1;entryX=0.205;entryY=0.965;entryDx=0;entryDy=0;entryPerimeter=0;startFill=0;" parent="eGAmUR279255d1PDw6Jc-125" source="eGAmUR279255d1PDw6Jc-514" target="eGAmUR279255d1PDw6Jc-496" edge="1">
          <mxGeometry relative="1" as="geometry">
            <mxPoint x="1280" y="470" as="targetPoint" />
          </mxGeometry>
        </mxCell>
        <mxCell id="eGAmUR279255d1PDw6Jc-516" style="edgeStyle=none;shape=connector;rounded=1;orthogonalLoop=1;jettySize=auto;html=1;exitX=0;exitY=0.5;exitDx=0;exitDy=0;strokeColor=#3a414a;strokeWidth=4.5;align=center;verticalAlign=middle;arcSize=12;fontFamily=Helvetica;fontSize=13;fontColor=default;labelBackgroundColor=default;startArrow=none;endArrow=none;endFill=1;startFill=0;" parent="eGAmUR279255d1PDw6Jc-125" source="eGAmUR279255d1PDw6Jc-514" target="eGAmUR279255d1PDw6Jc-61" edge="1">
          <mxGeometry relative="1" as="geometry" />
        </mxCell>
        <mxCell id="eGAmUR279255d1PDw6Jc-514" value="Design" style="html=1;overflow=block;blockSpacing=1;whiteSpace=wrap;rhombus;fontSize=15;fontColor=default;spacing=3.8;strokeColor=#3a414a;strokeOpacity=100;fillOpacity=100;rounded=1;absoluteArcSize=1;arcSize=9;fillColor=#ffffff;strokeWidth=4.5;lucidId=Ow.NtlfTqsT4;textOpacity=80;" parent="eGAmUR279255d1PDw6Jc-125" vertex="1">
          <mxGeometry x="1010" y="620" width="240" height="150" as="geometry" />
        </mxCell>
        <mxCell id="eGAmUR279255d1PDw6Jc-199" style="edgeStyle=none;shape=connector;rounded=1;orthogonalLoop=1;jettySize=auto;html=1;exitX=0.5;exitY=1;exitDx=0;exitDy=0;strokeColor=#3a414a;strokeWidth=4.5;align=center;verticalAlign=middle;arcSize=12;fontFamily=Helvetica;fontSize=15;fontColor=default;labelBackgroundColor=default;startArrow=none;endArrow=none;endFill=1;startFill=0;textOpacity=80;" parent="1" source="eGAmUR279255d1PDw6Jc-198" edge="1">
          <mxGeometry relative="1" as="geometry">
            <mxPoint x="3668" y="45" as="targetPoint" />
          </mxGeometry>
        </mxCell>
        <mxCell id="eGAmUR279255d1PDw6Jc-201" style="edgeStyle=none;shape=connector;rounded=1;orthogonalLoop=1;jettySize=auto;html=1;strokeColor=#3a414a;strokeWidth=4.5;align=center;verticalAlign=middle;arcSize=12;fontFamily=Helvetica;fontSize=15;fontColor=default;labelBackgroundColor=default;startArrow=none;endArrow=none;endFill=1;startFill=0;textOpacity=80;entryX=0.024;entryY=0.346;entryDx=0;entryDy=0;entryPerimeter=0;" parent="1" target="eGAmUR279255d1PDw6Jc-202" edge="1">
          <mxGeometry relative="1" as="geometry">
            <mxPoint x="3832.5" y="-25" as="targetPoint" />
            <mxPoint x="3759.9999999999995" y="-85" as="sourcePoint" />
          </mxGeometry>
        </mxCell>
        <mxCell id="eGAmUR279255d1PDw6Jc-198" value="MemeberShip_Type" style="shape=ellipse;strokeWidth=6;fontSize=15;textOpacity=80;" parent="1" vertex="1">
          <mxGeometry x="3560" y="-175" width="210" height="120" as="geometry" />
        </mxCell>
        <mxCell id="eGAmUR279255d1PDw6Jc-203" style="edgeStyle=none;shape=connector;rounded=1;orthogonalLoop=1;jettySize=auto;html=1;exitX=0.5;exitY=1;exitDx=0;exitDy=0;strokeColor=#3a414a;strokeWidth=4.5;align=center;verticalAlign=middle;arcSize=12;fontFamily=Helvetica;fontSize=13;fontColor=default;labelBackgroundColor=default;startArrow=none;endArrow=block;endFill=1;" parent="1" source="eGAmUR279255d1PDw6Jc-200" edge="1">
          <mxGeometry relative="1" as="geometry">
            <mxPoint x="3690" y="300" as="targetPoint" />
          </mxGeometry>
        </mxCell>
        <mxCell id="eGAmUR279255d1PDw6Jc-200" value="Standard_Patrons" style="shape=ellipse;strokeWidth=6;fontSize=15;textOpacity=80;" parent="1" vertex="1">
          <mxGeometry x="3555" y="15" width="215" height="120" as="geometry" />
        </mxCell>
        <mxCell id="eGAmUR279255d1PDw6Jc-204" style="edgeStyle=none;shape=connector;rounded=1;orthogonalLoop=1;jettySize=auto;html=1;strokeColor=#3a414a;strokeWidth=4.5;align=center;verticalAlign=middle;arcSize=12;fontFamily=Helvetica;fontSize=13;fontColor=default;labelBackgroundColor=default;startArrow=none;endArrow=block;endFill=1;" parent="1" source="eGAmUR279255d1PDw6Jc-202" edge="1">
          <mxGeometry relative="1" as="geometry">
            <mxPoint x="4020" y="110" as="targetPoint" />
          </mxGeometry>
        </mxCell>
        <mxCell id="eGAmUR279255d1PDw6Jc-202" value="Premium_Patrons" style="shape=ellipse;strokeWidth=6;fontSize=15;textOpacity=80;" parent="1" vertex="1">
          <mxGeometry x="3860" y="-130" width="230" height="90" as="geometry" />
        </mxCell>
        <mxCell id="eGAmUR279255d1PDw6Jc-274" style="edgeStyle=none;shape=connector;rounded=1;orthogonalLoop=1;jettySize=auto;html=1;strokeColor=#3a414a;strokeWidth=4.5;align=center;verticalAlign=middle;arcSize=12;fontFamily=Helvetica;fontSize=13;fontColor=default;labelBackgroundColor=default;startArrow=none;endArrow=none;endFill=1;startFill=0;" parent="1" source="eGAmUR279255d1PDw6Jc-205" edge="1">
          <mxGeometry relative="1" as="geometry">
            <mxPoint x="3750" y="510" as="targetPoint" />
          </mxGeometry>
        </mxCell>
        <mxCell id="eGAmUR279255d1PDw6Jc-205" value="RegularBorrowing_perns" style="shape=ellipse;strokeWidth=6;fontSize=15;textOpacity=80;" parent="1" vertex="1">
          <mxGeometry x="3600" y="260" width="215" height="120" as="geometry" />
        </mxCell>
        <mxCell id="eGAmUR279255d1PDw6Jc-210" style="edgeStyle=none;shape=connector;rounded=1;orthogonalLoop=1;jettySize=auto;html=1;strokeColor=#3a414a;strokeWidth=4.5;align=center;verticalAlign=middle;arcSize=12;fontFamily=Helvetica;fontSize=13;fontColor=default;labelBackgroundColor=default;startArrow=none;endArrow=none;endFill=1;startFill=0;" parent="1" source="eGAmUR279255d1PDw6Jc-206" edge="1">
          <mxGeometry relative="1" as="geometry">
            <mxPoint x="4047.5" y="360" as="targetPoint" />
          </mxGeometry>
        </mxCell>
        <mxCell id="eGAmUR279255d1PDw6Jc-206" value="ExclusiveBorrowing_perms" style="shape=ellipse;strokeWidth=6;fontSize=15;textOpacity=80;" parent="1" vertex="1">
          <mxGeometry x="3940" y="80" width="215" height="120" as="geometry" />
        </mxCell>
        <mxCell id="eGAmUR279255d1PDw6Jc-273" value="MaxNumBooks_PerBorrow" style="shape=ellipse;strokeWidth=6;fontSize=15;textOpacity=80;" parent="1" vertex="1">
          <mxGeometry x="3940" y="340" width="215" height="120" as="geometry" />
        </mxCell>
        <mxCell id="eGAmUR279255d1PDw6Jc-275" value="ExclusiveAccessToPremiumBooks" style="shape=ellipse;strokeWidth=6;fontSize=15;textOpacity=80;" parent="1" vertex="1">
          <mxGeometry x="3660" y="510" width="270" height="140" as="geometry" />
        </mxCell>
        <mxCell id="eGAmUR279255d1PDw6Jc-473" value="Transaction_ID" style="shape=ellipse;strokeWidth=6;fontSize=15;textOpacity=80;fontStyle=0" parent="1" vertex="1">
          <mxGeometry x="2100" y="970" width="143" height="75" as="geometry" />
        </mxCell>
        <mxCell id="eGAmUR279255d1PDw6Jc-475" value="CheckoutDay&amp;Time" style="shape=ellipse;strokeWidth=6;fontSize=15;textOpacity=80;fontStyle=0" parent="1" vertex="1">
          <mxGeometry x="2300" y="970" width="143" height="75" as="geometry" />
        </mxCell>
        <mxCell id="eGAmUR279255d1PDw6Jc-477" value="DueDate" style="shape=ellipse;strokeWidth=6;fontSize=15;textOpacity=80;fontStyle=0" parent="1" vertex="1">
          <mxGeometry x="2520" y="980" width="143" height="75" as="geometry" />
        </mxCell>
        <mxCell id="eGAmUR279255d1PDw6Jc-479" value="ReturnDate" style="shape=ellipse;strokeWidth=6;fontSize=15;textOpacity=80;fontStyle=0" parent="1" vertex="1">
          <mxGeometry x="1920" y="1055" width="143" height="75" as="geometry" />
        </mxCell>
        <mxCell id="eGAmUR279255d1PDw6Jc-481" value="OverDue Status&#xa;" style="shape=ellipse;strokeWidth=6;fontSize=15;textOpacity=80;fontStyle=0" parent="1" vertex="1">
          <mxGeometry x="2740" y="1030" width="143" height="75" as="geometry" />
        </mxCell>
        <mxCell id="eGAmUR279255d1PDw6Jc-489" value="&lt;span style=&quot;color: rgb(0, 0, 0); font-family: Helvetica; font-size: 32px; font-style: normal; font-variant-ligatures: normal; font-variant-caps: normal; font-weight: 400; letter-spacing: normal; orphans: 2; text-align: center; text-indent: 0px; text-transform: none; widows: 2; word-spacing: 0px; -webkit-text-stroke-width: 0px; white-space: normal; background-color: rgb(255, 255, 255); text-decoration-thickness: initial; text-decoration-style: initial; text-decoration-color: initial; float: none; display: inline !important;&quot;&gt;M&lt;/span&gt;" style="text;whiteSpace=wrap;html=1;fontFamily=Helvetica;fontSize=13;fontColor=default;labelBackgroundColor=default;resizable=0;" parent="1" vertex="1">
          <mxGeometry x="2160" y="530" width="60" height="60" as="geometry" />
        </mxCell>
        <mxCell id="eGAmUR279255d1PDw6Jc-504" value="FirstName" style="shape=ellipse;strokeWidth=6;fontSize=15;textOpacity=80;" parent="1" vertex="1">
          <mxGeometry x="1810" y="-1260" width="180" height="90" as="geometry" />
        </mxCell>
        <mxCell id="eGAmUR279255d1PDw6Jc-506" value="MiddleName" style="shape=ellipse;strokeWidth=6;fontSize=15;textOpacity=80;" parent="1" vertex="1">
          <mxGeometry x="2000" y="-1280" width="180" height="90" as="geometry" />
        </mxCell>
        <mxCell id="eGAmUR279255d1PDw6Jc-509" value="LastName" style="shape=ellipse;strokeWidth=6;fontSize=15;textOpacity=80;" parent="1" vertex="1">
          <mxGeometry x="2190" y="-1230" width="180" height="90" as="geometry" />
        </mxCell>
      </root>
    </mxGraphModel>
  </diagram>
</mxfile>
